<svg xmlns="http://www.w3.org/2000/svg" width="1120" height="660" viewBox="0 0 1120 660">
<rect width="100%" height="100%" fill="#ffffff"/>
<text x="96.00" y="42.00" font-family="Arial, sans-serif" font-size="24" font-weight="700" text-anchor="start" fill="#1f2933">Decision variance by experiment</text>
<text x="96.00" y="70.00" font-family="Arial, sans-serif" font-size="14" font-weight="400" text-anchor="start" fill="#1f2933">Bernoulli variance of accept/reject outcomes for each comparison system.</text>
<text x="22.00" y="322.00" font-family="Arial, sans-serif" font-size="13" font-weight="400" text-anchor="middle" fill="#1f2933">Decision variance</text>
<line x1="96" y1="532.00" x2="1072" y2="532.00" stroke="#e5e7eb" stroke-width="1"/>
<text x="84.00" y="536.00" font-family="Arial, sans-serif" font-size="12" font-weight="400" text-anchor="end" fill="#1f2933">0.00</text>
<line x1="96" y1="448.00" x2="1072" y2="448.00" stroke="#e5e7eb" stroke-width="1"/>
<text x="84.00" y="452.00" font-family="Arial, sans-serif" font-size="12" font-weight="400" text-anchor="end" fill="#1f2933">0.20</text>
<line x1="96" y1="364.00" x2="1072" y2="364.00" stroke="#e5e7eb" stroke-width="1"/>
<text x="84.00" y="368.00" font-family="Arial, sans-serif" font-size="12" font-weight="400" text-anchor="end" fill="#1f2933">0.40</text>
<line x1="96" y1="280.00" x2="1072" y2="280.00" stroke="#e5e7eb" stroke-width="1"/>
<text x="84.00" y="284.00" font-family="Arial, sans-serif" font-size="12" font-weight="400" text-anchor="end" fill="#1f2933">0.60</text>
<line x1="96" y1="196.00" x2="1072" y2="196.00" stroke="#e5e7eb" stroke-width="1"/>
<text x="84.00" y="200.00" font-family="Arial, sans-serif" font-size="12" font-weight="400" text-anchor="end" fill="#1f2933">0.80</text>
<line x1="96" y1="112.00" x2="1072" y2="112.00" stroke="#e5e7eb" stroke-width="1"/>
<text x="84.00" y="116.00" font-family="Arial, sans-serif" font-size="12" font-weight="400" text-anchor="end" fill="#1f2933">1.00</text>
<line x1="96" y1="112" x2="96" y2="532" stroke="#425466" stroke-width="1.2"/>
<line x1="96" y1="532" x2="1072" y2="532" stroke="#425466" stroke-width="1.2"/>
<rect x="170.67" y="430.32" width="40.00" height="101.68" fill="#2f5f8f" rx="2"/>
<text x="190.67" y="424.32" font-family="Arial, sans-serif" font-size="11" font-weight="400" text-anchor="middle" fill="#1f2933">0.24</text>
<rect x="214.67" y="431.20" width="40.00" height="100.80" fill="#b17818" rx="2"/>
<text x="234.67" y="425.20" font-family="Arial, sans-serif" font-size="11" font-weight="400" text-anchor="middle" fill="#1f2933">0.24</text>
<rect x="258.67" y="490.52" width="40.00" height="41.48" fill="#7c8f2f" rx="2"/>
<text x="278.67" y="484.52" font-family="Arial, sans-serif" font-size="11" font-weight="400" text-anchor="middle" fill="#1f2933">0.10</text>
<rect x="302.67" y="527.39" width="40.00" height="4.61" fill="#9b4f7f" rx="2"/>
<text x="258.67" y="562.00" font-family="Arial, sans-serif" font-size="12" font-weight="400" text-anchor="middle" fill="#1f2933">Specialist disagreement</text>
<rect x="496.00" y="532.00" width="40.00" height="0.00" fill="#2f5f8f" rx="2"/>
<rect x="540.00" y="478.45" width="40.00" height="53.55" fill="#b17818" rx="2"/>
<text x="560.00" y="472.45" font-family="Arial, sans-serif" font-size="11" font-weight="400" text-anchor="middle" fill="#1f2933">0.13</text>
<rect x="584.00" y="532.00" width="40.00" height="0.00" fill="#7c8f2f" rx="2"/>
<rect x="628.00" y="473.67" width="40.00" height="58.33" fill="#9b4f7f" rx="2"/>
<text x="648.00" y="467.67" font-family="Arial, sans-serif" font-size="11" font-weight="400" text-anchor="middle" fill="#1f2933">0.14</text>
<text x="584.00" y="562.00" font-family="Arial, sans-serif" font-size="12" font-weight="400" text-anchor="middle" fill="#1f2933">False positive trap</text>
<rect x="821.33" y="440.61" width="40.00" height="91.39" fill="#2f5f8f" rx="2"/>
<text x="841.33" y="434.61" font-family="Arial, sans-serif" font-size="11" font-weight="400" text-anchor="middle" fill="#1f2933">0.22</text>
<rect x="865.33" y="470.01" width="40.00" height="61.99" fill="#b17818" rx="2"/>
<text x="885.33" y="464.01" font-family="Arial, sans-serif" font-size="11" font-weight="400" text-anchor="middle" fill="#1f2933">0.15</text>
<rect x="909.33" y="494.20" width="40.00" height="37.80" fill="#7c8f2f" rx="2"/>
<text x="929.33" y="488.20" font-family="Arial, sans-serif" font-size="11" font-weight="400" text-anchor="middle" fill="#1f2933">0.09</text>
<rect x="953.33" y="523.77" width="40.00" height="8.23" fill="#9b4f7f" rx="2"/>
<text x="909.33" y="562.00" font-family="Arial, sans-serif" font-size="12" font-weight="400" text-anchor="middle" fill="#1f2933">Mitigation versus hard veto</text>
<rect x="96" y="592" width="14" height="14" fill="#2f5f8f" rx="2"/>
<text x="118.00" y="604.00" font-family="Arial, sans-serif" font-size="12" font-weight="400" text-anchor="start" fill="#1f2933">Mean ensemble</text>
<rect x="341" y="592" width="14" height="14" fill="#b17818" rx="2"/>
<text x="363.00" y="604.00" font-family="Arial, sans-serif" font-size="12" font-weight="400" text-anchor="start" fill="#1f2933">Static weighted ensemble</text>
<rect x="586" y="592" width="14" height="14" fill="#7c8f2f" rx="2"/>
<text x="608.00" y="604.00" font-family="Arial, sans-serif" font-size="12" font-weight="400" text-anchor="start" fill="#1f2933">Veto MAVS</text>
<rect x="831" y="592" width="14" height="14" fill="#9b4f7f" rx="2"/>
<text x="853.00" y="604.00" font-family="Arial, sans-serif" font-size="12" font-weight="400" text-anchor="start" fill="#1f2933">Pure MAVS-GC</text>
</svg>