<svg xmlns="http://www.w3.org/2000/svg" width="1120" height="660" viewBox="0 0 1120 660">
<rect width="100%" height="100%" fill="#ffffff"/>
<text x="96.00" y="42.00" font-family="Arial, sans-serif" font-size="24" font-weight="700" text-anchor="start" fill="#1f2933">Hard-veto compliance</text>
<text x="96.00" y="70.00" font-family="Arial, sans-serif" font-size="14" font-weight="400" text-anchor="start" fill="#1f2933">Hard-veto-active pure MAVS-GC records compared with resulting rejections.</text>
<text x="22.00" y="322.00" font-family="Arial, sans-serif" font-size="13" font-weight="400" text-anchor="middle" fill="#1f2933">Record count</text>
<line x1="96" y1="532.00" x2="1072" y2="532.00" stroke="#e5e7eb" stroke-width="1"/>
<text x="84.00" y="536.00" font-family="Arial, sans-serif" font-size="12" font-weight="400" text-anchor="end" fill="#1f2933">0.00</text>
<line x1="96" y1="448.00" x2="1072" y2="448.00" stroke="#e5e7eb" stroke-width="1"/>
<text x="84.00" y="452.00" font-family="Arial, sans-serif" font-size="12" font-weight="400" text-anchor="end" fill="#1f2933">8.28</text>
<line x1="96" y1="364.00" x2="1072" y2="364.00" stroke="#e5e7eb" stroke-width="1"/>
<text x="84.00" y="368.00" font-family="Arial, sans-serif" font-size="12" font-weight="400" text-anchor="end" fill="#1f2933">17</text>
<line x1="96" y1="280.00" x2="1072" y2="280.00" stroke="#e5e7eb" stroke-width="1"/>
<text x="84.00" y="284.00" font-family="Arial, sans-serif" font-size="12" font-weight="400" text-anchor="end" fill="#1f2933">25</text>
<line x1="96" y1="196.00" x2="1072" y2="196.00" stroke="#e5e7eb" stroke-width="1"/>
<text x="84.00" y="200.00" font-family="Arial, sans-serif" font-size="12" font-weight="400" text-anchor="end" fill="#1f2933">33</text>
<line x1="96" y1="112.00" x2="1072" y2="112.00" stroke="#e5e7eb" stroke-width="1"/>
<text x="84.00" y="116.00" font-family="Arial, sans-serif" font-size="12" font-weight="400" text-anchor="end" fill="#1f2933">41</text>
<line x1="96" y1="112" x2="96" y2="532" stroke="#425466" stroke-width="1.2"/>
<line x1="96" y1="532" x2="1072" y2="532" stroke="#425466" stroke-width="1.2"/>
<rect x="214.67" y="440.70" width="40.00" height="91.30" fill="#2f5f8f" rx="2"/>
<text x="234.67" y="434.70" font-family="Arial, sans-serif" font-size="11" font-weight="400" text-anchor="middle" fill="#1f2933">9.00</text>
<rect x="258.67" y="440.70" width="40.00" height="91.30" fill="#7c8f2f" rx="2"/>
<text x="278.67" y="434.70" font-family="Arial, sans-serif" font-size="11" font-weight="400" text-anchor="middle" fill="#1f2933">9.00</text>
<text x="258.67" y="562.00" font-family="Arial, sans-serif" font-size="12" font-weight="400" text-anchor="middle" fill="#1f2933">Specialist disagreement</text>
<rect x="540.00" y="166.78" width="40.00" height="365.22" fill="#2f5f8f" rx="2"/>
<text x="560.00" y="160.78" font-family="Arial, sans-serif" font-size="11" font-weight="400" text-anchor="middle" fill="#1f2933">36</text>
<rect x="584.00" y="166.78" width="40.00" height="365.22" fill="#7c8f2f" rx="2"/>
<text x="604.00" y="160.78" font-family="Arial, sans-serif" font-size="11" font-weight="400" text-anchor="middle" fill="#1f2933">36</text>
<text x="584.00" y="562.00" font-family="Arial, sans-serif" font-size="12" font-weight="400" text-anchor="middle" fill="#1f2933">False positive trap</text>
<rect x="865.33" y="298.67" width="40.00" height="233.33" fill="#2f5f8f" rx="2"/>
<text x="885.33" y="292.67" font-family="Arial, sans-serif" font-size="11" font-weight="400" text-anchor="middle" fill="#1f2933">23</text>
<rect x="909.33" y="298.67" width="40.00" height="233.33" fill="#7c8f2f" rx="2"/>
<text x="929.33" y="292.67" font-family="Arial, sans-serif" font-size="11" font-weight="400" text-anchor="middle" fill="#1f2933">23</text>
<text x="909.33" y="562.00" font-family="Arial, sans-serif" font-size="12" font-weight="400" text-anchor="middle" fill="#1f2933">Mitigation versus hard veto</text>
<rect x="96" y="592" width="14" height="14" fill="#2f5f8f" rx="2"/>
<text x="118.00" y="604.00" font-family="Arial, sans-serif" font-size="12" font-weight="400" text-anchor="start" fill="#1f2933">Hard veto active</text>
<rect x="341" y="592" width="14" height="14" fill="#7c8f2f" rx="2"/>
<text x="363.00" y="604.00" font-family="Arial, sans-serif" font-size="12" font-weight="400" text-anchor="start" fill="#1f2933">Rejected under veto</text>
</svg>