<svg xmlns="http://www.w3.org/2000/svg" width="1120" height="660" viewBox="0 0 1120 660">
<rect width="100%" height="100%" fill="#ffffff"/>
<text x="96.00" y="42.00" font-family="Arial, sans-serif" font-size="24" font-weight="700" text-anchor="start" fill="#1f2933">Pure MAVS-GC governance pressure</text>
<text x="96.00" y="70.00" font-family="Arial, sans-serif" font-size="14" font-weight="400" text-anchor="start" fill="#1f2933">Mean severity, governed threshold, consensus, and mitigation across synthetic tests.</text>
<text x="22.00" y="322.00" font-family="Arial, sans-serif" font-size="13" font-weight="400" text-anchor="middle" fill="#1f2933">Mean value</text>
<line x1="96" y1="532.00" x2="1072" y2="532.00" stroke="#e5e7eb" stroke-width="1"/>
<text x="84.00" y="536.00" font-family="Arial, sans-serif" font-size="12" font-weight="400" text-anchor="end" fill="#1f2933">0.00</text>
<line x1="96" y1="448.00" x2="1072" y2="448.00" stroke="#e5e7eb" stroke-width="1"/>
<text x="84.00" y="452.00" font-family="Arial, sans-serif" font-size="12" font-weight="400" text-anchor="end" fill="#1f2933">0.68</text>
<line x1="96" y1="364.00" x2="1072" y2="364.00" stroke="#e5e7eb" stroke-width="1"/>
<text x="84.00" y="368.00" font-family="Arial, sans-serif" font-size="12" font-weight="400" text-anchor="end" fill="#1f2933">1.36</text>
<line x1="96" y1="280.00" x2="1072" y2="280.00" stroke="#e5e7eb" stroke-width="1"/>
<text x="84.00" y="284.00" font-family="Arial, sans-serif" font-size="12" font-weight="400" text-anchor="end" fill="#1f2933">2.04</text>
<line x1="96" y1="196.00" x2="1072" y2="196.00" stroke="#e5e7eb" stroke-width="1"/>
<text x="84.00" y="200.00" font-family="Arial, sans-serif" font-size="12" font-weight="400" text-anchor="end" fill="#1f2933">2.71</text>
<line x1="96" y1="112.00" x2="1072" y2="112.00" stroke="#e5e7eb" stroke-width="1"/>
<text x="84.00" y="116.00" font-family="Arial, sans-serif" font-size="12" font-weight="400" text-anchor="end" fill="#1f2933">3.39</text>
<line x1="96" y1="112" x2="96" y2="532" stroke="#425466" stroke-width="1.2"/>
<line x1="96" y1="532" x2="1072" y2="532" stroke="#425466" stroke-width="1.2"/>
<rect x="170.67" y="200.95" width="40.00" height="331.05" fill="#2f5f8f" rx="2"/>
<text x="190.67" y="194.95" font-family="Arial, sans-serif" font-size="11" font-weight="400" text-anchor="middle" fill="#1f2933">2.67</text>
<rect x="214.67" y="211.18" width="40.00" height="320.82" fill="#b17818" rx="2"/>
<text x="234.67" y="205.18" font-family="Arial, sans-serif" font-size="11" font-weight="400" text-anchor="middle" fill="#1f2933">2.59</text>
<rect x="258.67" y="509.09" width="40.00" height="22.91" fill="#7c8f2f" rx="2"/>
<text x="278.67" y="503.09" font-family="Arial, sans-serif" font-size="11" font-weight="400" text-anchor="middle" fill="#1f2933">0.19</text>
<rect x="302.67" y="491.06" width="40.00" height="40.94" fill="#9b4f7f" rx="2"/>
<text x="322.67" y="485.06" font-family="Arial, sans-serif" font-size="11" font-weight="400" text-anchor="middle" fill="#1f2933">0.33</text>
<text x="258.67" y="562.00" font-family="Arial, sans-serif" font-size="12" font-weight="400" text-anchor="middle" fill="#1f2933">Specialist disagreement</text>
<rect x="496.00" y="166.78" width="40.00" height="365.22" fill="#2f5f8f" rx="2"/>
<text x="516.00" y="160.78" font-family="Arial, sans-serif" font-size="11" font-weight="400" text-anchor="middle" fill="#1f2933">2.95</text>
<rect x="540.00" y="170.03" width="40.00" height="361.97" fill="#b17818" rx="2"/>
<text x="560.00" y="164.03" font-family="Arial, sans-serif" font-size="11" font-weight="400" text-anchor="middle" fill="#1f2933">2.92</text>
<rect x="584.00" y="457.57" width="40.00" height="74.43" fill="#7c8f2f" rx="2"/>
<text x="604.00" y="451.57" font-family="Arial, sans-serif" font-size="11" font-weight="400" text-anchor="middle" fill="#1f2933">0.60</text>
<rect x="628.00" y="518.99" width="40.00" height="13.01" fill="#9b4f7f" rx="2"/>
<text x="584.00" y="562.00" font-family="Arial, sans-serif" font-size="12" font-weight="400" text-anchor="middle" fill="#1f2933">False positive trap</text>
<rect x="821.33" y="178.59" width="40.00" height="353.41" fill="#2f5f8f" rx="2"/>
<text x="841.33" y="172.59" font-family="Arial, sans-serif" font-size="11" font-weight="400" text-anchor="middle" fill="#1f2933">2.85</text>
<rect x="865.33" y="188.62" width="40.00" height="343.38" fill="#b17818" rx="2"/>
<text x="885.33" y="182.62" font-family="Arial, sans-serif" font-size="11" font-weight="400" text-anchor="middle" fill="#1f2933">2.77</text>
<rect x="909.33" y="415.38" width="40.00" height="116.62" fill="#7c8f2f" rx="2"/>
<text x="929.33" y="409.38" font-family="Arial, sans-serif" font-size="11" font-weight="400" text-anchor="middle" fill="#1f2933">0.94</text>
<rect x="953.33" y="491.89" width="40.00" height="40.11" fill="#9b4f7f" rx="2"/>
<text x="973.33" y="485.89" font-family="Arial, sans-serif" font-size="11" font-weight="400" text-anchor="middle" fill="#1f2933">0.32</text>
<text x="909.33" y="562.00" font-family="Arial, sans-serif" font-size="12" font-weight="400" text-anchor="middle" fill="#1f2933">Mitigation versus hard veto</text>
<rect x="96" y="592" width="14" height="14" fill="#2f5f8f" rx="2"/>
<text x="118.00" y="604.00" font-family="Arial, sans-serif" font-size="12" font-weight="400" text-anchor="start" fill="#1f2933">Severity</text>
<rect x="341" y="592" width="14" height="14" fill="#b17818" rx="2"/>
<text x="363.00" y="604.00" font-family="Arial, sans-serif" font-size="12" font-weight="400" text-anchor="start" fill="#1f2933">Threshold</text>
<rect x="586" y="592" width="14" height="14" fill="#7c8f2f" rx="2"/>
<text x="608.00" y="604.00" font-family="Arial, sans-serif" font-size="12" font-weight="400" text-anchor="start" fill="#1f2933">Consensus</text>
<rect x="831" y="592" width="14" height="14" fill="#9b4f7f" rx="2"/>
<text x="853.00" y="604.00" font-family="Arial, sans-serif" font-size="12" font-weight="400" text-anchor="start" fill="#1f2933">Mitigation</text>
</svg>