<svg xmlns="http://www.w3.org/2000/svg" width="1120" height="660" viewBox="0 0 1120 660">
<rect width="100%" height="100%" fill="#ffffff"/>
<text x="96.00" y="42.00" font-family="Arial, sans-serif" font-size="24" font-weight="700" text-anchor="start" fill="#1f2933">Unsafe acceptance by experiment</text>
<text x="96.00" y="70.00" font-family="Arial, sans-serif" font-size="14" font-weight="400" text-anchor="start" fill="#1f2933">Unsafe truth=0 acceptances divided by all records for each system and synthetic test.</text>
<text x="22.00" y="322.00" font-family="Arial, sans-serif" font-size="13" font-weight="400" text-anchor="middle" fill="#1f2933">Unsafe acceptance</text>
<line x1="96" y1="532.00" x2="1072" y2="532.00" stroke="#e5e7eb" stroke-width="1"/>
<text x="84.00" y="536.00" font-family="Arial, sans-serif" font-size="12" font-weight="400" text-anchor="end" fill="#1f2933">0%</text>
<line x1="96" y1="448.00" x2="1072" y2="448.00" stroke="#e5e7eb" stroke-width="1"/>
<text x="84.00" y="452.00" font-family="Arial, sans-serif" font-size="12" font-weight="400" text-anchor="end" fill="#1f2933">20%</text>
<line x1="96" y1="364.00" x2="1072" y2="364.00" stroke="#e5e7eb" stroke-width="1"/>
<text x="84.00" y="368.00" font-family="Arial, sans-serif" font-size="12" font-weight="400" text-anchor="end" fill="#1f2933">40%</text>
<line x1="96" y1="280.00" x2="1072" y2="280.00" stroke="#e5e7eb" stroke-width="1"/>
<text x="84.00" y="284.00" font-family="Arial, sans-serif" font-size="12" font-weight="400" text-anchor="end" fill="#1f2933">60%</text>
<line x1="96" y1="196.00" x2="1072" y2="196.00" stroke="#e5e7eb" stroke-width="1"/>
<text x="84.00" y="200.00" font-family="Arial, sans-serif" font-size="12" font-weight="400" text-anchor="end" fill="#1f2933">80%</text>
<line x1="96" y1="112.00" x2="1072" y2="112.00" stroke="#e5e7eb" stroke-width="1"/>
<text x="84.00" y="116.00" font-family="Arial, sans-serif" font-size="12" font-weight="400" text-anchor="end" fill="#1f2933">100%</text>
<line x1="96" y1="112" x2="96" y2="532" stroke="#425466" stroke-width="1.2"/>
<line x1="96" y1="532" x2="1072" y2="532" stroke="#425466" stroke-width="1.2"/>
<rect x="170.67" y="462.00" width="40.00" height="70.00" fill="#2f5f8f" rx="2"/>
<text x="190.67" y="456.00" font-family="Arial, sans-serif" font-size="11" font-weight="400" text-anchor="middle" fill="#1f2933">17%</text>
<rect x="214.67" y="485.33" width="40.00" height="46.67" fill="#b17818" rx="2"/>
<text x="234.67" y="479.33" font-family="Arial, sans-serif" font-size="11" font-weight="400" text-anchor="middle" fill="#1f2933">11%</text>
<rect x="258.67" y="513.33" width="40.00" height="18.67" fill="#7c8f2f" rx="2"/>
<text x="278.67" y="507.33" font-family="Arial, sans-serif" font-size="11" font-weight="400" text-anchor="middle" fill="#1f2933">4%</text>
<rect x="302.67" y="532.00" width="40.00" height="0.00" fill="#9b4f7f" rx="2"/>
<text x="258.67" y="562.00" font-family="Arial, sans-serif" font-size="12" font-weight="400" text-anchor="middle" fill="#1f2933">Specialist disagreement</text>
<rect x="496.00" y="112.00" width="40.00" height="420.00" fill="#2f5f8f" rx="2"/>
<text x="516.00" y="106.00" font-family="Arial, sans-serif" font-size="11" font-weight="400" text-anchor="middle" fill="#1f2933">100%</text>
<rect x="540.00" y="175.00" width="40.00" height="357.00" fill="#b17818" rx="2"/>
<text x="560.00" y="169.00" font-family="Arial, sans-serif" font-size="11" font-weight="400" text-anchor="middle" fill="#1f2933">85%</text>
<rect x="584.00" y="532.00" width="40.00" height="0.00" fill="#7c8f2f" rx="2"/>
<rect x="628.00" y="462.00" width="40.00" height="70.00" fill="#9b4f7f" rx="2"/>
<text x="648.00" y="456.00" font-family="Arial, sans-serif" font-size="11" font-weight="400" text-anchor="middle" fill="#1f2933">17%</text>
<text x="584.00" y="562.00" font-family="Arial, sans-serif" font-size="12" font-weight="400" text-anchor="middle" fill="#1f2933">False positive trap</text>
<rect x="821.33" y="532.00" width="40.00" height="0.00" fill="#2f5f8f" rx="2"/>
<rect x="865.33" y="532.00" width="40.00" height="0.00" fill="#b17818" rx="2"/>
<rect x="909.33" y="532.00" width="40.00" height="0.00" fill="#7c8f2f" rx="2"/>
<rect x="953.33" y="532.00" width="40.00" height="0.00" fill="#9b4f7f" rx="2"/>
<text x="909.33" y="562.00" font-family="Arial, sans-serif" font-size="12" font-weight="400" text-anchor="middle" fill="#1f2933">Mitigation versus hard veto</text>
<rect x="96" y="592" width="14" height="14" fill="#2f5f8f" rx="2"/>
<text x="118.00" y="604.00" font-family="Arial, sans-serif" font-size="12" font-weight="400" text-anchor="start" fill="#1f2933">Mean ensemble</text>
<rect x="341" y="592" width="14" height="14" fill="#b17818" rx="2"/>
<text x="363.00" y="604.00" font-family="Arial, sans-serif" font-size="12" font-weight="400" text-anchor="start" fill="#1f2933">Static weighted ensemble</text>
<rect x="586" y="592" width="14" height="14" fill="#7c8f2f" rx="2"/>
<text x="608.00" y="604.00" font-family="Arial, sans-serif" font-size="12" font-weight="400" text-anchor="start" fill="#1f2933">Veto MAVS</text>
<rect x="831" y="592" width="14" height="14" fill="#9b4f7f" rx="2"/>
<text x="853.00" y="604.00" font-family="Arial, sans-serif" font-size="12" font-weight="400" text-anchor="start" fill="#1f2933">Pure MAVS-GC</text>
</svg>